<?xml version="1.0" standalone="no"?>
<!DOCTYPE svg PUBLIC "-//W3C//DTD SVG 20010904//EN"
 "http://www.w3.org/TR/2001/REC-SVG-20010904/DTD/svg10.dtd">
<svg version="1.0" xmlns="http://www.w3.org/2000/svg"
 width="1120.000000pt" height="1120.000000pt" viewBox="0 0 1120.000000 1120.000000"
 preserveAspectRatio="xMidYMid meet">
<metadata>
Created by potrace 1.11, written by Peter Selinger 2001-2013
</metadata>
<g transform="translate(0.000000,1120.000000) scale(0.100000,-0.100000)"
fill="#000000" stroke="none">
<path d="M2755 8523 c-1108 -107 -2000 -685 -2452 -1588 -152 -303 -246 -624
-288 -984 -20 -167 -20 -545 0 -716 18 -158 56 -350 95 -487 16 -56 27 -105
24 -110 -3 -4 0 -8 5 -8 6 0 11 -7 11 -15 0 -19 27 -97 55 -160 12 -27 26 -61
30 -75 12 -40 123 -259 168 -332 86 -139 121 -193 132 -204 5 -6 21 -26 35
-44 14 -18 30 -38 35 -44 6 -6 32 -38 58 -71 47 -58 231 -249 279 -290 13 -11
46 -38 73 -60 27 -22 57 -46 65 -53 112 -96 360 -250 535 -332 252 -120 464
-191 758 -255 l117 -25 604 0 c601 0 605 0 728 25 559 111 1063 373 1438 747
124 123 180 192 180 223 0 14 -19 39 -52 70 -29 27 -85 78 -124 114 -38 36
-121 113 -184 171 -63 58 -146 135 -185 171 -38 36 -94 88 -124 115 -30 27
-74 68 -97 91 -23 23 -45 39 -48 36 -3 -4 -6 -2 -6 4 0 6 -12 13 -27 16 -25 5
-42 -9 -158 -122 -192 -188 -366 -308 -574 -396 -330 -139 -742 -176 -1119
-100 -349 71 -695 266 -925 523 -287 322 -436 735 -437 1212 0 334 53 582 180
845 239 495 669 814 1242 920 166 31 462 35 643 10 156 -22 377 -91 520 -162
199 -101 337 -204 527 -395 85 -86 110 -88 188 -8 14 14 72 68 130 120 115
104 188 171 229 210 14 14 85 79 156 145 270 248 264 240 224 300 -48 70 -325
331 -418 394 -20 14 -38 28 -41 32 -3 3 -54 39 -115 79 -148 96 -475 257 -565
277 -14 3 -27 9 -30 13 -3 3 -36 15 -75 25 -38 10 -77 22 -85 25 -15 8 -93 28
-140 36 -14 3 -54 12 -90 20 -36 8 -139 27 -230 41 -150 23 -196 26 -500 28
-184 1 -353 0 -375 -2z"/>
<path d="M6287 8433 c-4 -3 -7 -1281 -7 -2840 0 -2820 0 -2833 20 -2853 20
-20 33 -20 658 -20 561 0 640 2 660 16 l22 15 0 749 c0 411 3 755 6 764 6 14
67 16 588 16 319 0 658 5 751 10 531 30 985 158 1354 384 429 262 722 660 846
1152 12 52 15 140 15 527 0 513 0 508 -66 707 -32 97 -162 376 -188 403 -6 7
-23 31 -38 53 -15 23 -66 87 -113 143 -381 447 -967 707 -1735 770 -123 10
-2763 14 -2773 4z m2708 -1137 c193 -31 372 -93 487 -169 91 -60 216 -190 258
-267 97 -180 115 -260 115 -500 0 -164 -3 -195 -24 -270 -102 -363 -358 -574
-796 -655 -130 -24 -315 -30 -879 -29 -414 1 -499 3 -507 15 -10 17 -12 1859
-1 1875 4 6 14 14 22 17 8 4 287 5 620 3 499 -3 623 -6 705 -20z"/>
</g>
</svg>
